<svg xmlns="http://www.w3.org/2000/svg" version="1.1" width="600px" height="600px" viewBox="0 0 200 200" style="overflow:hidden!important;"><g id="svga-group-wrapper"><g id="svga-group-backs-single"><path id="SvgjsPath39227" d="M0 0h200v200H0V0z" fill="#40c0cb" stroke-width="none" opacity="1" stroke="none"></path><path id="SvgjsPath39228" d="M100 124.2c-13.3 0-24.2-10.8-24.2-24.2S86.7 75.8 100 75.8s24.2 10.8 24.2 24.2-10.9 24.2-24.2 24.2zm0-42.4c-10 0-18.2 8.2-18.2 18.2s8.2 18.2 18.2 18.2 18.2-8.2 18.2-18.2S110 81.8 100 81.8zm0 57.4c-21.6 0-39.2-17.6-39.2-39.2S78.4 60.8 100 60.8s39.2 17.6 39.2 39.2-17.6 39.2-39.2 39.2zm0-72.4c-18.3 0-33.2 14.9-33.2 33.2s14.9 33.2 33.2 33.2 33.2-14.9 33.2-33.2-14.9-33.2-33.2-33.2zm0 87.5c-29.9 0-54.3-24.4-54.3-54.3S70.1 45.7 100 45.7 154.3 70 154.3 100s-24.4 54.3-54.3 54.3zm0-102.6c-26.6 0-48.3 21.7-48.3 48.3 0 26.6 21.7 48.3 48.3 48.3 26.6 0 48.3-21.7 48.3-48.3 0-26.6-21.7-48.3-48.3-48.3zm0 116.4c-37.6 0-68.1-30.6-68.1-68.1S62.4 31.9 100 31.9s68.1 30.6 68.1 68.1-30.5 68.1-68.1 68.1zm0-130.2c-34.2 0-62.1 27.9-62.1 62.1s27.9 62.1 62.1 62.1 62.1-27.9 62.1-62.1-27.9-62.1-62.1-62.1zm0 146.2c-46.4 0-84.1-37.7-84.1-84.1S53.6 15.9 100 15.9s84.1 37.7 84.1 84.1-37.7 84.1-84.1 84.1zm0-162.2c-43.1 0-78.1 35-78.1 78.1s35 78.1 78.1 78.1 78.1-35.1 78.1-78.1-35-78.1-78.1-78.1zm0 90c-6.6 0-11.9-5.4-11.9-11.9 0-6.6 5.4-11.9 11.9-11.9 6.6 0 11.9 5.4 11.9 11.9 0 6.6-5.3 11.9-11.9 11.9zm0-17.8c-3.3 0-5.9 2.7-5.9 5.9 0 3.3 2.7 5.9 5.9 5.9 3.3 0 5.9-2.7 5.9-5.9 0-3.3-2.6-5.9-5.9-5.9zM0 146.7v12.8c9.9 16.6 23.9 30.6 40.5 40.5h12.8C29.9 189 11 170.1 0 146.7zm200 0c-11 23.4-29.9 42.3-53.3 53.3h12.8c16.6-9.9 30.6-23.9 40.5-40.5v-12.8zm0-93.4V40.5C190.1 23.9 176.1 9.9 159.5 0h-12.8C170.1 11 189 29.9 200 53.3zm-200 0C11 29.9 29.9 11 53.3 0H40.5C23.9 9.9 9.9 23.9 0 40.5v12.8zm200 36.3C195.1 42.5 157.6 4.9 110.4 0H89.6C42.5 4.9 4.9 42.5 0 89.6v20.8c4.9 47.1 42.5 84.7 89.6 89.6h20.8c47.1-4.9 84.7-42.4 89.6-89.6V89.6zM100 194.5c-52.1 0-94.5-42.4-94.5-94.5S47.9 5.5 100 5.5s94.5 42.4 94.5 94.5-42.4 94.5-94.5 94.5zM0 176.2v9.5c4.4 5.1 9.1 9.9 14.3 14.3h9.5c-9-6.8-17-14.8-23.8-23.8zm200 0c-6.8 8.9-14.8 16.9-23.8 23.8h9.5c5.1-4.4 9.9-9.1 14.3-14.3v-9.5zM0 23.8c6.8-9 14.8-17 23.8-23.8h-9.5C9.1 4.4 4.4 9.1 0 14.3v9.5zm200 0v-9.5c-4.4-5.1-9.1-9.9-14.3-14.3h-9.5c9 6.8 17 14.8 23.8 23.8z" fill="#28b0bc" stroke-width="none" opacity="1" stroke="none"></path></g><g id="svga-group-humanwrap-move" transform="matrix(1,0,0,1,2,-6)"><g id="svga-group-humanwrap" transform="matrix(1.1500005000000004,0,0,1.1500005000000004,-14.910051359398878,-18.078291500089705)"><g id="svga-group-hair-back-move" transform="matrix(1,-1.3877787807814457e-16,1.3877787807814457e-16,1,-1.4210854715202004e-14,0)"><g id="svga-group-hair-back"></g></g><g id="svga-group-humanbody-back"><path id="SvgjsPath38554" d="M166.5 181.1c-10.9-6.6-27.6-8.4-35-12.1-4.9-2.5-9.1-4.7-8.9-17.8s1.9-42.4 1.9-42.4H75.4s1.6 29.4 1.9 42.4-4.2 15.6-8.9 17.8c-7.4 3.5-24.1 5.4-35 12.1-10.8 6.6-10 18.9-10 18.9v19.7h153.3V200c-.1 0 .7-12.3-10.2-18.9z" fill="#f4baa3" stroke-width="none" opacity="1"></path></g><g id="svga-group-chinshadow-single"><path id="SvgjsPath38550" d="M75.7 162.4c5.4 3.4 13.9 4.6 24.3 4.6 10.4.1 18.9-1.1 24.3-4.5-1.1-2.5-1.8-6-1.7-11.3.2-13.1 1.9-42.4 1.9-42.4H75.4s1.6 29.4 1.9 42.4c.1 5.2-.5 8.7-1.6 11.2z" fill="#d58464" stroke-width="none" opacity="0.65"></path></g><g id="svga-group-humanbody-front"><path id="SvgjsPath38555" d="M78.7 156.8c.5 4.8 1.7 9.4 3.1 13.9.8 2.3 1.6 4.6 2.6 6.9.8 2 1.7 4.2 3.1 5.9.3.4 1 0 .9-.5-.5-2.2-1.6-4.3-2.4-6.4-.9-2.2-1.7-4.4-2.5-6.6-1.5-4.4-2.8-8.9-4.1-13.3-.2-.4-.8-.3-.7.1zm41.3-1c-1.3 8.2-3.9 16.1-5.4 24.2-.1.4.4.5.6.2 3.1-7.7 4.1-16.1 5.1-24.3-.1-.2-.3-.2-.3-.1zm-25.8 11.9c-.9 3.6 1.9 8.6 6.2 7.6.5-.1.4-.8 0-1-1.4-.5-2.9-.9-3.9-2.1-1.1-1.2-1.5-2.9-1.4-4.5 0-.4-.8-.5-.9 0z" fill="#d58464" stroke-width="none" opacity="1"></path><path id="SvgjsPath38556" d="M177.3 219.7c-.1-6.6-.3-13.1-.3-19.7l-.3-.3c.1 0 .1 0 .2.1s.1.2.1.1v-1.4c0-.5-.1-.9-.1-1.4-.1-.9-.3-1.9-.5-2.8-.5-1.8-1.1-3.6-2-5.3-1.7-3.4-4.4-6.2-7.7-8.1-3.6-2.2-7.6-3.8-11.6-5.1-4-1.3-8.1-2.4-12.1-3.5-4-1.2-8.1-2.2-11.8-4.2-1.9-1-3.6-2.1-4.8-3.6-1.2-1.6-1.9-3.5-2.3-5.5-.8-4-.4-8.2-.3-12.4l.7-12.6 1.5-25.2.1-1.4h-1.4c-8.2 0-16.4 0-24.6.1l-24.6.3h-.9l.1.9c.8 11.9 1.6 23.8 2.1 35.7.1 3 .3 6 .2 8.9-.1 2.9-.4 5.9-1.6 8.6-.6 1.3-1.4 2.5-2.4 3.5s-2.3 1.8-3.6 2.4c-2.6 1.3-5.4 2.2-8.3 3-5.8 1.5-11.6 2.8-17.3 4.7-2.8.9-5.7 2-8.4 3.4-1.3.7-2.7 1.4-4 2.4-1.3.9-2.4 1.9-3.5 3.1-2.1 2.3-3.6 5.2-4.5 8.1-.5 1.5-.8 3-1 4.6-.1.8-.1 1.6-.1 2.4v2.3l-.2 17.9v1.3h1.4l38.3.2c12.8.1 25.5.1 38.3 0 12.8-.1 25.6-.1 38.3-.3 12.8-.2 25.6-.5 38.3-.7h.6v-.5zm-77.2-1.6H61.8l-37 .2-.1-16.6v-2.2c0-.7 0-1.4.1-2.1.1-1.4.4-2.8.8-4.2.8-2.7 2.1-5.3 3.9-7.5.9-1.1 2-2.1 3.1-2.9 1.1-.9 2.4-1.6 3.7-2.3 2.6-1.4 5.3-2.5 8.1-3.5 5.6-2 11.4-3.4 17.1-5.1 2.9-.8 5.8-1.7 8.5-3.1 1.3-.7 2.7-1.5 3.8-2.6 1.1-1.1 2-2.4 2.6-3.9 1.2-2.9 1.5-5.9 1.6-8.9 0-3-.1-6-.2-9l-1.3-34.8 23.5.4c7.7.1 15.4.1 23.1.1-.4 7.9-.8 15.9-1.1 23.8-.2 4.2-.2 8.4-.3 12.6 0 4.2-.2 8.5.8 12.8.5 2.1 1.3 4.2 2.8 6 1.4 1.7 3.4 2.9 5.3 3.8 3.9 1.9 8 2.8 12.1 3.8s8.2 2 12.2 3.3c4 1.3 7.9 2.8 11.5 5 3.2 1.9 5.8 4.7 7.5 8 .9 1.6 1.5 3.4 1.9 5.2.2.9.4 1.8.4 2.7.1.5.1.9.1 1.4V200l-.3 19c-12.6-.2-25.1-.5-37.7-.7-12.7-.1-25.5-.1-38.2-.2z" fill="#c66c49" stroke-width="none" opacity="1"></path></g><g id="svga-group-clothes-single"><path id="SvgjsPath38445" d="M180.3 220.1c0-17.5-1.6-28.7-1.6-28.7-3.2-15.2-22.5-16.1-31.1-18.5-2.8-.8-13.9-4.5-13.9-4.5-4-8.6-9.1-13.4-9.1-13.4s1.1 16.6-4.8 20.7c-2.8 1.9-8.9 3.1-11.2 5-2.4 2-5.9 10.2-5.9 10.2s-8.5-12.5-10.7-12.3c-4.7.5-8 0-9.2-.4-6.7-2-6.7-23.4-6.7-23.4s-6.5 4.6-9.4 12.4c-3.2 1.4-11 3.2-15 4.7-8.3 3.1-27.5 5.6-30.5 19.6 0 0-1.6 11.2-1.6 28.7l160.7-.1z" fill="#1e78a2" stroke-width="none" opacity="1"></path><path id="SvgjsPath38446" d="M180.6 210.1c0-3.3-.1-6.7-.3-10-.1-1.7-.2-3.3-.3-5l-.2-2.5-.1-1.3c-.1-.4-.2-.9-.3-1.3-.9-3.4-2.8-6.5-5.4-8.9-2.6-2.3-5.7-4-8.9-5.1-3.2-1.2-6.5-2-9.8-2.7 0 0-17.5-4.4-20.3-5.9-1.1-2.4-2.4-4.7-3.9-6.9-.8-1.2-1.6-2.3-2.5-3.4-.9-1.1-1.7-1.9-2.8-2.9-.2-.2-1-.7-1.3-.7-.7-.1-1 .6-1.1 1.3v.1c-.4 3.8-.6 14.2-1.3 15.9-.8 1.7-1.8 3.2-3.2 4-1.5.9-3.4 1.5-5.2 2.2-.9.3-1.9.7-2.8 1.1-1 .4-1.9.9-2.9 1.6-1 .9-1.5 1.7-2.1 2.6-.6.9-1.1 1.8-1.5 2.6l-1.8 3.6c-2.2-3-4.4-6-7-8.7-.4-.4-.8-.8-1.3-1.2-.2-.2-.5-.4-.8-.6-.3-.2-.6-.4-1.2-.4h-.6l-.4.1-.8.1c-.5.1-1.1.1-1.6.1-1.1 0-2.1 0-3.2-.1-1-.1-2.2-.2-3-.5-.8-.3-1.6-1-2.2-1.8-.6-.8-1.2-1.7-1.7-2.6-1-1.9-1.6-13.9-2.3-18.2 0-.1-.1-.1-.1-.2-.2-.2-.5-.2-.7-.1-1.1.8-2.1 1.7-3 2.7s-1.8 2-2.6 3c-.8 1.1-1.5 2.2-2.2 3.3-.7 1.1-1.2 2.2-1.7 3.4-3.8 1.7-10.8 3-14.7 4.4-4 1.4-8.1 2.3-12.2 3.6-4.1 1.3-8.2 2.9-11.8 5.5-1.8 1.3-3.4 2.9-4.8 4.7-1.3 1.8-2.3 4-2.8 6.2v.1c-.3 2.4-.6 4.8-.8 7.2-.2 2.4-.4 4.8-.5 7.2-.1 2.4-.3 4.8-.3 7.2-.1 2.4-.1 4.8-.1 7.2 0 .8.6 1.4 1.4 1.4l40.5.2c13.5 0 27-.1 40.4-.2l40.2-.5 19.9-.3 19.8-.4c.2-3.5.2-6.9.2-10.2zM120.2 177c1-.6 1.9-1.5 2.5-2.4.7-.9 1.2-1.8 1.7-2.8.9-1.9.9-10.8 1.3-13.9.2.3.4.5.7.8.8 1 2.7 3 3.4 4.1 3.5 5.5 5.5 12.6 5.7 14 0 0 2.7 12.7 3.1 17.1-1.7-.8-3.4-1.8-4.9-2.8-2.1-1.4-4.1-2.9-6.1-4.4-2-1.6-3.9-3.1-5.8-4.9-.9-.9-1.8-1.8-2.9-2.5-.7-.4-1.5-.8-2.4-.9 1.2-.2 2.5-.7 3.7-1.4zm-22.1 19.1c-.6-1.7-1.3-3.3-2.2-4.9-.8-1.5-1.7-3-2.8-4.3.4 0 .8.1 1.2.1.9.1 1.9.1 2.8.2h1.7c1 1.4 1.9 2.7 2.8 4.1-1.2 1.4-2.3 2.9-3.4 4.4 0 .2 0 .2-.1.4zm-9.2-16.5c.6 0 1.1 0 1.7-.1l.8-.1H92s.2.1.3.2c.2.1.4.3.5.4.4.3.7.7 1.1 1.1 1.6 1.8 3.2 3.8 4.6 5.8-1.4-.2-2.8-.5-4.3-.7-1.8-.3-3.7-.6-5.5-1-1.8-.4-3.6-.8-5.4-1.3-1.7-.5-3.4-.9-5-1.5l.1-.1c.8-1 1.7-1.9 2.7-2.6.5-.3 1-.6 1.5-.8 1 .3 1.8.4 2.8.5 1.3.2 2.4.2 3.5.2zm-21.7-12.3c.5-1.2 1-2.4 1.6-3.5.6-1.1 1.3-2.2 2.1-3.2s1.6-2 2.6-2.9c.7-.7 1.5-1.4 2.2-2 .1 6.3.8 15.8 1.8 17.9.5 1 1.1 2 1.8 2.9.7.9 1.6 1.8 2.8 2.3.2.1.3.1.5.1-.5.2-1 .4-1.4.7-1.1.6-2 1.6-2.9 2.5-1.8 1.7-3.8 3.3-5.8 4.9s-4 3.1-6.1 4.4c-1.6 1-3.3 2-5 2.8 2.2-18.3 5.7-26.8 5.8-26.9zm-7.7 51.2-38.5.2c0-4.3.1-8.6.2-12.9.1-2.4.2-4.8.4-7.1.2-2.4.4-4.7.6-7.1.4-1.9 1.2-3.8 2.3-5.4 1.1-1.6 2.5-3.1 4.2-4.4.3-.2.5-.4.8-.6 1.6 2.9 3.3 5.7 5 8.5 1.8 2.9 3.6 5.8 5.5 8.7.5.8.9 1.4 1.1 2.2.3.8.5 1.6.6 2.4.4 1.6.6 3.3.8 5l.6 5.1c.2 1.7.3 3.4.5 5.1v-5.1l-.3-5.1c-.1-1.7-.4-3.4-.7-5.1-.2-.9-.4-1.7-.6-2.6-.2-.9-.7-1.7-1.2-2.4-1.9-2.9-3.7-5.8-5.7-8.6-1.8-2.7-3.7-5.4-5.6-8.1 3.1-2.2 6.7-3.7 10.3-5 4-1.4 8.1-2.4 12.2-3.9 3.9-1.6 10.1-2.6 13.9-4.4-1.8 4.4-3.9 10.7-6.6 27.8 0 .2 0 .4.1.6.2.5.8.7 1.3.5 2.4-1.2 4.5-2.6 6.6-4.1 2-1.6 4-3.2 5.9-4.9 1.8-1.7 3.7-3.3 5.3-5.2 1.5.9 3.2 1.6 4.8 2.2 1.8.6 3.6 1.1 5.4 1.5 1.4.3 2.8.5 4.1.6.6 1.7 1.3 3.3 2.2 4.8.9 1.6 1.8 3.1 3 4.5-.1.1-.2.3-.2.5-.1.4-.1.7-.2 1.1-.1.7-.1 1.4-.1 2.1v4.1c.1 2.7.2 5.4.4 8.1l.3 4.1c.1.9.2 1.8.3 2.6-13-.2-26-.3-39-.3zm39.9.3h-.7v-6.7l-.2-8.1c0-1.4-.1-2.7-.1-4 0-.7 0-1.3.1-2s.1-1.2.5-1.8c.6-1.2 1.4-2.3 2.2-3.4l.8-1.1c.1.1.2.2.4.3.6.3 1.3 0 1.6-.6.6-1.3 1.3-2.6 1.9-3.9 1.2 0 2.3-.1 3.4-.3 1.4-.2 2.8-.6 4.2-1-1.8 2.4-3.5 4.9-5.2 7.4-.9 1.3-1.8 2.6-2.7 4l-.7 1-.3.5c-.1.1-.3.5-.3.7-.2.9-.2 1.7-.3 2.5-.1 3.2.1 6.4.3 9.6.2 2.4.4 4.8.7 7.1l-5.6-.2zm40.2.5-34.3-.4-.1-2.4-.1-4.8c-.1-3.2-.2-6.4-.1-9.5 0-.8.1-1.6.2-2.3.1-.2 0-.2.2-.4l.3-.5.6-1c.8-1.4 1.7-2.7 2.5-4.1 1.6-2.6 3.1-5.1 4.6-7.8 1.4-.4 2.8-.9 4.1-1.5 1.3-.6 2.7-1.2 3.9-2l-4.2 1.2c-1.4.4-2.8.9-4.2 1.3l-4.2 1.2c-1 .3-2.1.5-3.1.8.2-.3.3-.7.5-1 .5-.9.9-1.7 1.5-2.5.5-.8 1.1-1.6 1.6-2 .6-.4 1.4-.9 2.3-1.2.9-.4 1.8-.7 2.7-1 .6-.2 1.2-.4 1.8-.7.8.2 1.7.6 2.4 1.1 1.1.7 1.9 1.6 2.7 2.6 1.7 1.9 3.6 3.6 5.4 5.3 1.9 1.7 3.8 3.3 5.9 4.9 2.1 1.5 4.2 2.9 6.6 4.1.2.1.4.1.6.1.5-.1.9-.6.8-1.1-.8-5-3.9-22.1-5.7-26.1 2.6 1.4 26.2 7.5 29.2 8.6 2.1.8 4.2 1.7 6.1 2.9-2 2.7-3.9 5.5-5.8 8.3-1.9 2.8-3.8 5.7-5.7 8.6-.4.7-1 1.5-1.2 2.4-.3.9-.5 1.7-.6 2.6-.3 1.7-.6 3.4-.7 5.1l-.3 5.1c0 1.7-.1 3.4 0 5.1.2-1.7.3-3.4.5-5.1l.6-5.1c.2-1.7.5-3.4.9-5l.6-2.4c.2-.8.6-1.4 1.1-2.2 1.8-2.9 3.7-5.8 5.5-8.7 1.8-2.9 3.5-5.8 5.1-8.7.8.5 1.6 1 2.3 1.6 2.4 2 4.2 4.7 5.1 7.8l.3 1.1.2 1.2.3 2.5.5 4.9c.3 3.3.6 6.6.8 9.9l.5 9.9-40.5-.7zm-37.8-21.9c.7 0 1.2.5 1.2 1.2s-.5 1.2-1.2 1.2-1.2-.5-1.2-1.2.5-1.2 1.2-1.2zm9.1-15.2c.7 0 1.2.5 1.2 1.2s-.5 1.2-1.2 1.2-1.2-.5-1.2-1.2.6-1.2 1.2-1.2zM102 216c.7 0 1.2.5 1.2 1.2s-.5 1.2-1.2 1.2-1.2-.5-1.2-1.2.5-1.2 1.2-1.2z" fill="#005a83" stroke-width="none" opacity="1"></path></g><g id="svga-group-head" transform="matrix(1,-1.3877787807814457e-16,1.3877787807814457e-16,1,-1.4210854715202004e-14,0)"><g id="svga-group-ears-left-move" transform="matrix(1,0,0,1,0,0)"><g id="svga-group-ears-left"><path id="SvgjsPath38458" d="M61.3 90s-2.5-2.4-5.4-3.5-6.1.7-7.1 3.7c-1 2.9 1.3 15.1 5 19.5s6.2 4.8 8.7 2.5c2.5-2.3 7-10.8-1.2-22.2z" fill="#f4baa3" stroke-width="none" opacity="1"></path><path id="SvgjsPath38459" d="M62.6 91.8c.4.6.8 1.3 1.2 1.9.4.6.7 1.4 1.1 2 .3.7.6 1.4.9 2.2.2.8.5 1.5.6 2.4.1.4.2.8.2 1.2l.1 1.2c0 1.7-.2 3.4-.7 4.9-.5 1.6-1.2 3-2.2 4.2-.2.3-.5.6-.8.8-.3.2-.6.5-.9.7-.6.4-1.3.7-2.1.8-.7.1-1.5 0-2.2-.3s-1.3-.7-1.8-1.2c-.6-.5-1.1-1-1.6-1.6s-.9-1.1-1.4-1.8c-1.7-2.6-2.6-5.7-3.4-8.7-.4-1.5-.8-3-1.1-4.6s-.6-3.2-.5-4.9c0-.4.1-.9.2-1.3.1-.2.1-.4.2-.6l.3-.6c.4-.7.9-1.3 1.5-1.8 1.2-1 2.6-1.4 4-1.2.7.1 1.4.3 2 .6.6.3 1.2.7 1.8 1.1 1.2.8 2.3 1.6 3.3 2.6l1.3 2zm-4.7-4.1c-.6-.3-1.2-.6-1.8-.8-.6-.2-1.2-.3-1.8-.3-1.2.1-2.3.6-3.3 1.4-.5.4-.9.9-1.2 1.5-.2.3-.3.6-.4.9-.1.3-.2.6-.2.9-.2 1.4-.1 3 .1 4.6.2 1.5.4 3.1.8 4.6.8 3 1.9 6 3.6 8.2.9 1.1 1.9 2.1 3 2.9s2.2 1.3 3.3 1.1c.5-.1 1.1-.3 1.6-.7.5-.4 1-.8 1.4-1.3.8-1 1.5-2.3 1.9-3.7.5-1.4.7-2.8.7-4.3s-.2-3-.4-4.5c-.6-3-2-5.8-3.7-8.2-1.3-.9-2.4-1.7-3.6-2.3z" fill="#e59e82" stroke-width="none" opacity="1"></path><path id="SvgjsPath38460" d="M52.6 89.6c3.3.6 5.4 6.1 6 9.8.1.1.1.2.2.3.4.6-.4 1.2-.8.6-.5-.8-1-1.6-1.8-1.9-1.4-.5-2.1 1.1-1.8 2.6.4 1.9 1.6 3 2.6 4.4.1.1 0 .3-.1.2-1.7-1-4.3-4.8-3.1-7.2.9-1.7 2.3-1.4 3.4-.4-.8-2.1-1.4-4.3-3-5.9-.5-.5-1.5-1.4-2.2-1.3-1.3.2-1.3 2.1-1.3 3.4-.1 1.7.1 3.4.4 5 0 .2-.2.2-.3.1-.7-2.4-2-10.4 1.8-9.7z" fill="#d58464" stroke-width="none" opacity="1"></path></g></g><g id="svga-group-ears-right-move" transform="matrix(1,0,0,1,0,0)"><g id="svga-group-ears-right"><path id="SvgjsPath38461" d="M138.7 90s2.5-2.4 5.4-3.5 6.1.7 7.1 3.7c1 2.9-1.3 15.1-5 19.5s-6.2 4.8-8.7 2.5c-2.5-2.3-7-10.8 1.2-22.2z" fill="#f4baa3" stroke-width="none" opacity="1"></path><path id="SvgjsPath38462" d="M138.6 89.9c1.1-1 2.2-1.8 3.3-2.6.6-.4 1.2-.7 1.8-1.1.6-.3 1.3-.6 2-.6 1.4-.2 2.8.3 4 1.2.6.5 1.1 1.1 1.5 1.8l.3.6c.1.2.2.4.2.6.1.4.2.9.2 1.3.1 1.7-.2 3.3-.5 4.9s-.7 3.1-1.1 4.6c-.9 3-1.8 6-3.4 8.7-.4.7-.9 1.2-1.4 1.8-.5.6-1 1.1-1.6 1.6s-1.2.9-1.8 1.2c-.7.3-1.4.4-2.2.3-.7-.1-1.4-.4-2.1-.8-.3-.2-.6-.4-.9-.7-.3-.3-.6-.5-.8-.8-1-1.2-1.7-2.6-2.2-4.2s-.7-3.3-.7-4.9l.1-1.2c0-.4.1-.8.2-1.2.1-.8.4-1.6.6-2.4.3-.7.6-1.5.9-2.2.4-.7.7-1.4 1.1-2 .4-.6.8-1.3 1.2-1.9l1.3-2zm.1.1c-1.7 2.4-3 5.2-3.7 8.2-.3 1.5-.5 3-.4 4.5s.3 2.9.7 4.3 1.1 2.6 1.9 3.7c.4.5.8 1 1.4 1.3.5.4 1 .6 1.6.7 1.1.2 2.2-.3 3.3-1.1 1-.8 2.1-1.8 3-2.9 1.7-2.3 2.8-5.2 3.6-8.2.4-1.5.6-3.1.8-4.6s.3-3.1.1-4.6c0-.4-.1-.6-.2-.9-.1-.3-.3-.6-.4-.9-.3-.6-.7-1-1.2-1.5-.9-.8-2.1-1.3-3.3-1.4-.6 0-1.2.1-1.8.3-.6.2-1.2.5-1.8.8-1.4.6-2.5 1.4-3.6 2.3z" fill="#e59e82" stroke-width="none" opacity="1"></path><path id="SvgjsPath38463" d="M147.4 89.6c-3.3.6-5.4 6.1-6 9.8-.1.1-.1.2-.2.3-.4.6.4 1.2.8.6.5-.8 1-1.6 1.8-1.9 1.4-.5 2.1 1.1 1.8 2.6-.4 1.9-1.6 3-2.6 4.4-.1.1 0 .3.1.2 1.7-1 4.3-4.8 3.1-7.2-.9-1.7-2.3-1.4-3.4-.4.8-2.1 1.4-4.3 3-5.9.5-.5 1.5-1.4 2.2-1.3 1.3.2 1.3 2.1 1.3 3.4.1 1.7-.1 3.4-.4 5 0 .2.2.2.3.1.7-2.4 2-10.4-1.8-9.7z" fill="#d58464" stroke-width="none" opacity="1"></path></g></g><g id="svga-group-faceshape-wrap"><g id="svga-group-faceshape-single"><path id="SvgjsPath38536" d="M143.6 82.2v-.3C142.3 52 122.5 35.3 100 35.3S57.8 52.1 56.5 82.1v.3c0 1.8.3 11.9 2.6 24.5 2.6 13.9 7.9 28.3 11.5 35.9 3.5 7.7 14.6 10.1 29.4 10.1s25.8-2.4 29.4-10.1c3.5-7.7 8.9-22 11.5-35.9 2.3-12.7 2.7-22.9 2.7-24.7z" fill="#f4baa3" stroke-width="none" opacity="1"></path><path id="SvgjsPath38537" d="M70.6 142.8c3.5 7.7 14.6 10.1 29.4 10.1s25.8-2.4 29.4-10.1c3.5-7.7 8.9-22 11.5-35.9 2.3-12.7 2.7-22.9 2.7-24.7v-.3C142.3 52 122.5 35.3 100 35.3S57.8 52.1 56.5 82.1v.3c0 1.8.3 11.9 2.6 24.5 2.6 13.9 7.9 28.3 11.5 35.9zM58.1 75.5c.3-1.7.5-3.4.9-5l.7-2.5c.2-.8.4-1.7.7-2.4l.9-2.4c.2-.4.3-.8.5-1.2l.6-1.1 1.1-2.3c.4-.8.9-1.5 1.3-2.2.5-.7.9-1.4 1.4-2.1l1.6-2 .8-1 .9-.9 1.8-1.8c.6-.6 1.3-1.1 1.9-1.6.7-.5 1.2-1.1 2-1.6 1.4-.9 2.7-1.9 4.2-2.6 2.9-1.7 6-2.7 9.2-3.7 6.4-1.6 13.1-1.8 19.6-.7 6.4 1.3 12.7 3.8 18 7.9 5.3 4.1 9.6 9.5 12.4 15.8 2.8 6.2 4.7 13.3 4.9 20.2-.1 6.9-1.1 13.6-2.4 20.4-1.2 6.8-3.3 13.4-5.6 19.8-2.4 6.4-5 12.8-7.9 19-.2.4-1 2-2.5 3.3-1.1.9-2.3 1.7-3.7 2.4-2.8 1.2-6 2-9.3 2.4-6.6.9-13.5.9-20.2.4-3.3-.2-6.6-.7-9.7-1.6-3.1-.9-5.9-2.2-7.8-4.3-.4-.5-.9-1.1-1.2-1.7l-1.1-2.3c-.7-1.5-4.6-11.1-5.8-14.3-2.3-6.5-4.4-13-5.8-19.7-1.5-6.6-2.5-13.5-2.8-20.4-.3-3.4.1-6.8.4-10.2z" fill="#c66c49" stroke-width="none" opacity="1"></path></g></g><g id="svga-group-mouth-single-move" transform="matrix(1,0,0,1,0,0)"><g id="svga-group-mouth-single"><path id="SvgjsPath38654" d="M84.55 124.35c2.12.93 5.56 1.69 7.85 1.77 3.19.02 6.26 2.11 7.48 2.26 2.21.07 3.75-1.85 6.79-2.37 1.47-.35 4.04.01 9.17-1.28-5.01-.22-8.57-1.27-10.43-1.25-2.27.02-3.96 1.19-5.18 1.19-.81.02-3.58-1.23-5.7-.91-4.47.67-9.98.59-9.98.59z" fill="#e28c7c" stroke-width="none" opacity="1" transform="translate(0 2)"></path><path id="SvgjsPath38655" d="M107.46 131.85c1.42-.3 2.04-.44 3.21-1.01-2.36.13-8.45.88-10.82.8-2.64-.09-6.75-.74-9.33-1.2 1.05.53 2.75.91 3.57 1.17 0 0 4.79 1.73 13.37.24z" fill="#d58464" stroke-width="none" opacity="1" transform="translate(0 2)"></path></g></g><g id="svga-group-eyes-left-move" transform="matrix(1,0,0,1,0,0)"><g id="svga-group-eyes-left"><g id="svga-group-eyesback-left"><path id="SvgjsPath38498" d="M88.2 99.8s.1-4-2.3-6.6c-2.4-2.6-6.4-5.6-14.3-2.8 0 0 1.3 3.7 2.8 5.3 1.5 1.5 4.7 3.8 7.6 4.2 3 .3 6.2-.1 6.2-.1z" fill="#ffffff" stroke-width="none" opacity="1"></path></g><g id="svga-group-eyesiriswrapper-left" transform="matrix(1,0,0,1,0,0)"><g id="svga-group-eyesiriscontrol-left" transform="matrix(1,0,0,1,0,0)"><g id="svga-group-eyesiris-left"><path id="SvgjsPath38571" d="M80.1 87.8c3.2 0 5.7 2.6 5.7 5.7s-2.6 5.7-5.7 5.7-5.7-2.6-5.7-5.7 2.5-5.7 5.7-5.7z" fill="#276a3f" stroke-width="none" opacity="1"></path><path id="SvgjsPath38572" d="M80.1 88.1c3 0 5.5 2.4 5.5 5.5 0 3-2.4 5.5-5.5 5.5-3 0-5.5-2.4-5.5-5.5s2.4-5.5 5.5-5.5m0-.6c-3.3 0-6 2.7-6 6s2.7 6 6 6 6-2.7 6-6-2.7-6-6-6z" fill="#0d4b23" stroke-width="none" opacity="1"></path><path id="SvgjsPath38573" d="M77 95.1c0 1.4.6 2.7 1.4 3.6.5.2 1.1.2 1.6.2 3 0 5.5-2.4 5.5-5.5 0-1.1-.3-2.2-.9-3-.7-.4-1.5-.6-2.4-.6-2.9.1-5.2 2.5-5.2 5.3z" fill="#397950" stroke-width="none" opacity="1"></path><path id="SvgjsPath38574" d="M80.1 90.6c1.6 0 2.9 1.3 2.9 2.9s-1.3 2.9-2.9 2.9-2.9-1.3-2.9-2.9 1.2-2.9 2.9-2.9z" fill="#000000" stroke-width="none" opacity="1"></path><path id="SvgjsPath38575" d="M78.8 90.4c.8 0 1.5.7 1.5 1.5s-.7 1.5-1.5 1.5-1.5-.7-1.5-1.5.7-1.5 1.5-1.5zm2.9 4.3c.5 0 1 .4 1 1s-.4 1-1 1-1-.4-1-1 .4-1 1-1z" fill="#ffffff" stroke-width="none" opacity="1"></path></g></g></g><g id="svga-group-eyesfront-left"><path id="SvgjsPath38506" d="M69.4 94.6c0 6.4 4.7 11.5 10.6 11.5s10.6-5.2 10.6-11.5S85.9 83.1 80 83.1s-10.6 5.1-10.6 11.5zm2.2-4.2c7.9-2.9 12 .2 14.3 2.8 2.4 2.6 2.3 6.6 2.3 6.6s-3.2.5-6.2.1c-2.9-.4-6.1-2.7-7.6-4.2s-2.8-5.3-2.8-5.3z" fill="#f4baa3" stroke-width="none" opacity="1"></path><path id="SvgjsPath38507" d="M71.2 90.6c2.4 7.1 9.7 11.3 17.1 9.5.2-.1.2-.3.1-.4.8-3.5-1.7-7.2-4.5-9.1-3.3-2.1-9-2.9-12.4-.7-.1.1-.1.2-.1.3-.2.1-.3.2-.2.4zm.7-.2c1.6-.2 3.2-.8 4.9-.8 2.1 0 4.2.4 6 1.4 3.4 1.9 4.6 5 5.2 8.5-3.6 0-7 .1-10.2-1.7-2.8-1.6-4.8-4.3-5.9-7.4z" fill="#191c29" stroke-width="none" opacity="1"></path></g></g></g><g id="svga-group-eyes-right-move" transform="matrix(1,0,0,1,0,0)"><g id="svga-group-eyes-right"><g id="svga-group-eyesback-right"><path id="SvgjsPath38499" d="M111.8 99.8s-.1-4 2.3-6.6c2.4-2.6 6.4-5.6 14.3-2.8 0 0-1.3 3.7-2.8 5.3-1.5 1.5-4.7 3.8-7.6 4.2-3 .3-6.2-.1-6.2-.1z" fill="#ffffff" stroke-width="none" opacity="1"></path></g><g id="svga-group-eyesiriswrapper-right" transform="matrix(1,0,0,1,0,0)"><g id="svga-group-eyesiriscontrol-right" transform="matrix(1,0,0,1,0,0)"><g id="svga-group-eyesiris-right"><path id="SvgjsPath38576" d="M119.9 87.8c3.2 0 5.7 2.6 5.7 5.7s-2.6 5.7-5.7 5.7-5.7-2.6-5.7-5.7 2.6-5.7 5.7-5.7z" fill="#276a3f" stroke-width="none" opacity="1"></path><path id="SvgjsPath38577" d="M119.9 88.1c3 0 5.5 2.4 5.5 5.5 0 3-2.4 5.5-5.5 5.5s-5.5-2.4-5.5-5.5c.1-3.1 2.5-5.5 5.5-5.5m0-.6c-3.3 0-6 2.7-6 6s2.7 6 6 6 6-2.7 6-6-2.6-6-6-6z" fill="#0d4b23" stroke-width="none" opacity="1"></path><path id="SvgjsPath38578" d="M116.9 95.1c0 1.4.6 2.7 1.4 3.6.5.2 1.1.2 1.6.2 3 0 5.5-2.4 5.5-5.5 0-1.1-.3-2.2-.9-3-.7-.4-1.5-.6-2.4-.6-2.9.1-5.2 2.5-5.2 5.3z" fill="#397950" stroke-width="none" opacity="1"></path><path id="SvgjsPath38579" d="M119.9 90.6c1.6 0 2.9 1.3 2.9 2.9s-1.3 2.9-2.9 2.9-2.9-1.3-2.9-2.9 1.3-2.9 2.9-2.9z" fill="#000000" stroke-width="none" opacity="1"></path><path id="SvgjsPath38580" d="M118.7 90.4c.8 0 1.5.7 1.5 1.5s-.7 1.5-1.5 1.5-1.5-.7-1.5-1.5.7-1.5 1.5-1.5zm2.8 4.3c.5 0 1 .4 1 1s-.4 1-1 1-1-.4-1-1 .5-1 1-1z" fill="#ffffff" stroke-width="none" opacity="1"></path></g></g></g><g id="svga-group-eyesfront-right"><path id="SvgjsPath38508" d="M120 83.1c-5.9 0-10.6 5.2-10.6 11.5s4.7 11.5 10.6 11.5 10.6-5.2 10.6-11.5-4.8-11.5-10.6-11.5zm5.6 12.6c-1.5 1.5-4.7 3.8-7.6 4.2-2.9.4-6.2-.1-6.2-.1s-.1-4 2.3-6.6c2.4-2.6 6.4-5.6 14.3-2.8 0 0-1.3 3.7-2.8 5.3z" fill="#f4baa3" stroke-width="none" opacity="1"></path><path id="SvgjsPath38511" d="M128.7 90.2c0-.1 0-.2-.1-.3-3.4-2.2-9.2-1.4-12.4.7-2.8 1.8-5.4 5.6-4.5 9.1-.1.1-.1.4.1.4 7.4 1.7 14.7-2.4 17.1-9.5 0-.2-.1-.3-.2-.4zm-6.5 7.7c-3.2 1.9-6.6 1.8-10.2 1.7.6-3.6 1.8-6.7 5.2-8.5 1.8-1 3.9-1.5 6-1.4 1.7 0 3.2.6 4.9.8-1.1 3-3.1 5.7-5.9 7.4z" fill="#191c29" stroke-width="none" opacity="1"></path></g></g></g><g id="svga-group-facehighlight-single"></g><g id="svga-group-eyebrows-left-move" transform="matrix(1,0,0,1,0,0)"><g id="svga-group-eyebrows-left-rotate" transform="matrix(1,1.7453292519943295e-9,-1.7453292519943295e-9,1,1.4443264717556303e-7,-1.4080691812523582e-7)"><g id="svga-group-eyebrows-left"><path id="SvgjsPath38427" d="M72.61 81.6c.54-.64 1.34-1.05 2.14-1.38.01-.03.02-.05.05-.08.41-.33.91-.56 1.44-.72.37-.22.82-.36 1.3-.44.02-.05.06-.11.13-.13.52-.22 1.1-.13 1.65-.05.01-.01.01-.02.02-.02.28-.21.65-.19 1.02-.1.08-.13.23-.22.39-.22.2.01.41.04.6.07.31.02.64.1.95.21.04-.01.09-.04.14-.04 1.36-.19 2.89.45 4.19.84 1.33.4 2.76.72 3.88 1.57.19.14.18.44.02.6 1.01.59 2.09 1.34 2.52 2.36.06.06.11.14.14.24.06.07.12.15.18.23.38.42.3.94.01 1.33.18.37-.02.94-.42 1.12-.96.45-1.86-.62-2.51-1.35-.1-.07-.18-.13-.27-.19-.63-.47-1.18-.92-1.48-1.62-.16-.17-.32-.36-.47-.54-.86-.45-1.68-1-2.54-1.47-.72-.4-1.58-.74-2.25-1.25-.15-.07-.28-.17-.4-.29-.02.01-.04.02-.06.02-.54-.01-1.05-.26-1.56-.46-.65-.1-1.32-.17-1.98-.24-.27-.02-.55-.03-.83-.05-.04.03-.08.06-.14.07-.68.07-1.34.18-1.98.39-.3.09-.58.21-.87.31-.97.46-1.84 1.14-2.85 1.51-.12.01-.24-.14-.16-.23z" fill="#4e4341" stroke-width="none" opacity="1"></path><path id="SvgjsPath38428" d="M78.07 79.27c3.13-1.57 6.98.79 9.72 3.13-.88-1.12-1.8-2.11-2.82-3.16-.2-.2-.01-.52.27-.43 1.3.46 2.22 1.82 2.99 2.9.79 1.13 1.55 2.27 2.54 3.23-.33-.73-.58-1.46-1.03-2.14-.42-.66-.94-1.23-1.29-1.94-.13-.26.23-.5.44-.32 1.9 1.65 2.04 4.45 3.97 5.98.09.08.07.25-.07.25-.25 0-.47-.06-.67-.16-.06-.01-.12-.03-.19-.04-.07.01-.09-.06-.07-.1-.15-.11-.3-.25-.42-.4-.03 0-.05-.01-.08-.02-.82-.45-1.48-1.04-2.06-1.72-1.63-.93-2.99-2.27-4.59-3.25-2.11-1.3-4.09-1.59-6.51-1.43-.28.02-.33-.28-.13-.38z" fill="#5d5857" stroke-width="none" opacity="1"></path><path id="SvgjsPath38429" d="M93.75 83.92c-1.19-1.69-3.03-3.02-4.84-3.99-7.92-4.23-18.07-1.06-21.89 7.16-.14.3.3.48.45.2.01-.01.02-.03.03-.04.03-.01.06-.03.07-.06 1.97-2.25 3.79-4.39 6.47-5.83 2.71-1.47 5.73-1.75 8.67-.8 2.79.9 4.68 2.62 6.59 4.75.9 1 2.44 2.59 3.98 2.02 1.51-.56 1.21-2.36.47-3.41zm-.47.63c-.03 1.91-.6 2.52-1.72 1.82-.68-.35-1.23-.93-1.75-1.48-1.66-1.76-3.23-3.36-5.5-4.33-2-.86-4.31-1.26-6.48-1.01-1.56.17-3.26.8-4.87 1.72 2.41-1.59 5.22-2.54 8.22-2.55 2.74-.01 5.49.74 7.86 2.12 1.36.79 2.65 1.8 3.68 3 .21.22.39.46.56.71z" fill="#3f312e" stroke-width="none" opacity="1"></path></g></g></g><g id="svga-group-eyebrows-right-move" transform="matrix(1,0,0,1,0,0)"><g id="svga-group-eyebrows-right-rotate" transform="matrix(1,1.7453292519943295e-9,-1.7453292519943295e-9,1,1.4454802510499576e-7,-2.0822285762278625e-7)"><g id="svga-group-eyebrows-right"><path id="SvgjsPath38430" d="M127.41 81.68c-.53-.64-1.33-1.07-2.12-1.4a.177.177 0 0 0-.05-.08c-.4-.34-.9-.57-1.43-.74-.37-.22-.81-.37-1.3-.45a.25.25 0 0 0-.13-.14c-.52-.22-1.1-.14-1.65-.07-.01-.01-.01-.02-.02-.02-.28-.21-.65-.2-1.01-.11a.476.476 0 0 0-.39-.23c-.2.01-.41.03-.6.06-.31.01-.65.1-.95.2-.04-.01-.09-.04-.14-.05-1.36-.21-2.9.42-4.2.79-1.33.39-2.77.69-3.9 1.53-.19.14-.18.44-.03.6-1.01.58-2.1 1.32-2.54 2.33-.06.06-.11.14-.14.24-.06.07-.12.15-.18.23-.38.42-.31.94-.02 1.33-.18.37.01.94.4 1.12.95.46 1.87-.6 2.53-1.32.1-.07.19-.13.27-.19.64-.46 1.19-.91 1.49-1.6.16-.17.32-.36.47-.54.87-.44 1.69-.98 2.55-1.45.72-.39 1.58-.72 2.27-1.23.15-.07.28-.17.41-.29.02.01.04.02.06.02.54-.01 1.06-.25 1.56-.44.66-.1 1.32-.16 1.98-.22.27-.02.55-.03.83-.05.04.03.08.06.14.07.68.08 1.34.19 1.98.41.3.1.58.22.87.32.96.47 1.83 1.16 2.83 1.54.12.07.24-.07.16-.17z" fill="#4e4341" stroke-width="none" opacity="1"></path><path id="SvgjsPath38431" d="M121.98 79.29c-3.12-1.61-6.99.71-9.75 3.02.89-1.12 1.82-2.1 2.86-3.13.2-.2.02-.52-.26-.43-1.31.44-2.24 1.8-3.02 2.87-.8 1.13-1.58 2.25-2.57 3.21.34-.73.6-1.45 1.05-2.13.43-.66.96-1.22 1.31-1.92.13-.26-.22-.5-.44-.32-1.92 1.63-2.09 4.43-4.04 5.94-.09.08-.07.25.07.25.25 0 .47-.06.67-.15.06-.01.12-.03.19-.04.07.01.09-.06.07-.1.15-.11.3-.25.43-.39.03 0 .05-.01.08-.02.83-.44 1.49-1.03 2.08-1.69 1.63-.91 3.02-2.24 4.63-3.2 2.12-1.28 4.1-1.55 6.53-1.36.25 0 .31-.31.11-.41z" fill="#5d5857" stroke-width="none" opacity="1"></path><path id="SvgjsPath38432" d="M106.68 87.2c1.53.59 3.09-.97 4-1.97 1.93-2.11 3.84-3.81 6.64-4.68 2.96-.93 5.97-.61 8.67.89 2.66 1.48 4.46 3.63 6.41 5.9.03.02.05.05.07.06.01.01.02.03.03.04.15.28.59.1.46-.2-3.74-8.25-13.85-11.53-21.82-7.39-1.82.95-3.66 2.27-4.88 3.94-.76 1.03-1.08 2.83.42 3.41zm.59-3.49c1.04-1.19 2.35-2.19 3.71-2.96a15.56 15.56 0 0 1 7.89-2.04c2.98.04 5.8 1.01 8.19 2.64-1.59-.93-3.28-1.58-4.85-1.77-2.16-.26-4.47.12-6.49.94-2.28.94-3.87 2.53-5.55 4.27-.53.54-1.07 1.11-1.77 1.46-1.13.69-1.7.08-1.7-1.84.18-.25.37-.49.57-.7z" fill="#3f312e" stroke-width="none" opacity="1"></path></g></g></g><g id="svga-group-beardwrap"><g id="svga-group-beard-single-move" transform="matrix(1,0,0,1,0,0)"><g id="svga-group-beard-single"></g></g></g><g id="svga-group-mustache-single-move" transform="matrix(1,0,0,1,0,0)"><g id="svga-group-mustache-single"></g></g><g id="svga-group-nose-single-move" transform="matrix(1,0,0,1,0,0)"><g id="svga-group-nose-single"><path id="SvgjsPath38637" d="M108.82 114.55c-.68.35-1.95-.3-2.8-.12-.85.18-3.92 2.8-4.86 3.1-.94.3-2.83-.49-4.22-1.49-1.4-1-3.04-1.73-3.98-1.61-.94.12-2.86.27-3.16-1.19-.3-1.46 1.03-3.77 1.73-4.68.7-.91 1.32-1.79 1.9-2.22.59-.42 5.18-1.67 8.7-.94 3.53.73 4.68 1.98 5.87 3.44 1.19 1.45 2.28 4.95.82 5.71z" fill="#f4baa3" stroke-width="none" opacity="1" transform="translate(0 1)"></path><path id="SvgjsPath38638" d="M93.36 106.28c-1.54 1.31-5.19 5.71-3.47 7.9.26.33.59.51.99.6 1.42.33 2.5-.24 3.96.48 1.73.86 3.1 2.49 5.1 2.76 1.63.23 2.75-.66 3.93-1.64.64-.53 1.36-1.25 2.21-1.42.64-.13 1.35.24 1.97.27.48.02.83.03 1.22-.28.9-.72.69-2.13.45-3.09-.47-1.93-1.5-3.67-3.03-4.92a.212.212 0 0 0-.3.3c1.04 1.29 1.99 2.66 2.47 4.27.36 1.23.81 2.6-1.15 2.71-.35.02-.81-.23-1.2-.22-.9.03-1.68.5-2.38 1.01-1.9 1.39-3.2 2.86-5.69 1.52-1.99-1.07-3.45-2.76-5.87-2.51-.4.07-.79.13-1.19.18-1.11-.53-1.49-1.27-1.14-2.24.17-.75.53-1.49.86-2.18.62-1.27 1.5-2.32 2.34-3.44.03-.04-.04-.09-.08-.06z" fill="#c66c49" stroke-width="none" opacity="1" transform="translate(0 1)"></path><path id="SvgjsPath38639" d="M93.93 108.29c-.24 3.02 2.33 5.74 5.42 5.4a.15.15 0 0 0 0-.3c-2.87-.33-4.95-2.2-5.31-5.1-.01-.07-.1-.08-.11 0z" fill="#c66c49" stroke-width="none" opacity="1" transform="translate(0 1)"></path><path id="SvgjsPath38640" d="M102.14 105.4c-1.12-.46-2.36-.67-3.57-.54-.92.1-2.35.65-2.03 1.85.4 1.55 2.5 1.37 3.72 1.73 1.33.39 1.81 1.66 2.97 2.26.42.22.96.19 1.3-.17 1.84-1.91-.61-4.39-2.39-5.13z" fill="#fcc9b5" stroke-width="none" opacity="1" transform="translate(0 1)"></path></g></g><g id="svga-group-hair-front"><path id="SvgjsPath38697" d="M55.7 57.9s-10.6 13-9.5 22.2l2.7-3.3s-5.2 15.1-9.3 20.1c0 0 4.1-1.3 6.8-4.6v7.3s4.3-10.4 8.9-14.7c0 0 1.5 8.5 6.2 12.6 0 0-1-9.5 1-15.5 0 0 4.8-10.6 4.5-16.2 0 0 .8 5.6 3.3 8.1 0 0-2.1-11 3.3-17.2 0 0 6.4 2.1 18.2-1.5 0 0 12-1 22.1 11.6 0 0-.4-8.5-5.6-12.8 0 0 7.3 3.5 11.4 2.9 0 0 7.3 5.8 11.2 6 0 0 2.3 8.1 2.3 14.5 0 0 2.9-5.2 3.3-7.7 0 0-1.9 17.2 2.7 24.2 0 0 1-5.6 2.9-7 0 0 6.8 10.2 11.6 11.8 0 0-5.6-6.8-6-14.3l5.8 3.5s-5.6-6.4-5.8-16.1c0 0 3.9.6 6 4.1 0 0-5-13.9-12-18.8 0 0 7.6 5.4 13.4 3.5 0 0-13-5.8-16.2-14.1 0 0 5.4.6 8.7 3.7 0 0-7.6-12.4-20.3-13.9 0 0 8.3-8.3 8.1-12.2 0 0-13.9 8.7-25.2 8.5 0 0 4.6-7.9 4.4-11.6 0 0-7.9 9.7-12 10.5 0 0-.2-3.3 1.2-7.4 0 0-6 8.5-8.7 9.7L97 27s-6 8.1-11 9.7c0 0 1.3-2.9.6-5.6 0 0-1.7 3.1-3.7 4.1 0 0 1.6-6 1.3-7.9 0 0-4.4 7-6.2 7.9l-.2-5.4s-4.3 8.1-7.9 10.1c0 0-.8-2.9-1.9-4.3 0 0-1 3.9-1.3 5.8 0 0-.6-8.5-6.4-11.2 0 0 3.1 13.9.8 16.8 0 0-4.5-7.7-6-8.7 0 0 1.9 9.5 1.5 11.8 0 0-7.9 4.8-9.5 9.7 0 0 6-2.5 9.1-3.7l-.5 1.8z" fill="#6b4e40" stroke-width="none" opacity="1"></path><path id="SvgjsPath38698" d="M116.5 37.2c-7.8 8.4-16.7 13.2-27.8 15.5-.4.1-.3.8.1.8 10.9-1.2 21.4-7.3 28-16 .1-.3-.2-.5-.3-.3zm.6-1.2c-5.2 2.6-10.4 4.2-16 5.3-.3 0-.2.5.1.5 5.7-.5 11.3-2.4 16.2-5.4.2-.1 0-.5-.3-.4zm12.5-7.4c-2.3 4-5.2 7.1-8.7 10.1-.2.2.1.6.3.4 3.8-2.4 6.8-6.2 8.7-10.3.2-.2-.2-.4-.3-.2zM76 50.8c4.7-2.5 7.2-6.5 8.8-11.4.2-.4-.5-.6-.7-.3-1.1 1.5-2.4 2.7-4 3.8-.3.2-.1.6.3.5 1.9-.8 3.2-2.2 4.3-3.9-.2-.1-.5-.2-.7-.3-.8 4.7-4.4 8.7-8.4 11-.3.2.1.8.4.6zm6.4-1.2c2.8-1.3 5.7-3.1 7.6-5.5.2-.2-.1-.5-.3-.3-2.4 2.1-4.7 4-7.5 5.4-.3.1-.1.5.2.4zM71.3 54c-2.4 2.5-4.2 6.1-3.8 9.6.1.5.7.5.7 0 .4-3.5 1.2-6.4 3.5-9.1.4-.3-.1-.8-.4-.5zM60.9 32.3c1.8 6.7 1.1 11.8-.8 18.3-.1.4.4.6.7.3 3.6-5.3 3.5-13.2.9-18.9-.3-.4-.9-.1-.8.3zM56.3 42c-.3 3.8 1.1 7.8 4.2 10.1.3.2.6-.2.4-.5-2.5-2.8-4.1-5.8-4.2-9.6 0-.3-.4-.3-.4 0zm.2 15.9c-3.3 3.1-6 7.9-6.8 12.4-.1.3.5.6.6.3.9-2.2 1.7-4.3 2.8-6.4 1.1-2.1 2.6-3.9 3.9-5.8.3-.4-.2-.8-.5-.5zM60.1 74c-1.6 4.2-2.5 8.8-1.9 13.3.1.4.7.5.7 0 0-4.5.3-8.8 1.7-13.2.1-.3-.4-.4-.5-.1zM46.8 94.8c2.8-3.7 5.7-7.6 7.9-11.7.2-.4-.3-.8-.6-.5-3 3.6-5.4 7.8-7.8 11.8-.2.4.3.7.5.4zm52.1-40.7c4.2.6 6.7 3.1 9.2 6.3.2.2.5 0 .4-.2-1.2-3.9-5.7-6.3-9.5-6.6-.3 0-.4.5-.1.5zm10.8-2.8c5.8 2.1 12.3 3.2 18.5 2.5.4 0 .4-.5 0-.5-6.3-.3-12.3-.8-18.4-2.4-.3-.2-.4.3-.1.4zm18.1 8.5c4.6.6 8.9 1.9 13.3 3.2.4.1.6-.4.3-.6-4.2-2-8.9-2.8-13.5-2.9-.3-.1-.4.2-.1.3zm10.7 8.4c-1.3 6.1-1.5 12.8.2 18.8.1.3.7.3.7-.1-.8-6.4-1.1-12.3-.3-18.7 0-.3-.6-.4-.6 0zm-22.2-21.4c5.2.1 10.2.9 15.1 2.8-.1-.2-.1-.5-.2-.7-1.4 1.2-2.8 1.9-4.6 2.2-.2 0-.2.4.1.4 2 0 3.6-.6 5.1-1.9.3-.2.1-.6-.2-.7-4.9-2-10-2.9-15.3-2.6-.3 0-.4.5 0 .5zm23.9 8c1.4 1.4 3.3 2.9 5.3 3.3.3.1.5-.4.2-.6-.8-.5-1.8-.8-2.6-1.3-.9-.5-1.8-1.1-2.6-1.8-.2-.2-.6.1-.3.4zm2.6 7.4c2.6 2.4 4.3 5.1 6.2 8 .2.3.7.1.6-.2-1.1-3.3-3.8-6.1-6.5-8.1-.2-.3-.5.1-.3.3zm-1.3 8.4c.6 4.8 3 9.9 7 12.8.3.2.6-.2.4-.5-3.4-3.7-5.8-7.4-6.9-12.4-.1-.2-.5-.1-.5.1zm.9 12.9c.5 3.1 1.7 6.6 4.1 8.8.3.2.7-.1.5-.4-1.8-2.8-3.3-5.3-3.8-8.6-.2-.5-.9-.3-.8.2z" fill="#7a6155" stroke-width="none" opacity="1"></path><path id="SvgjsPath38699" d="M106.1 29.8c2.9-1.7 5.5-4.2 7.5-7-1.2 3.5-2.8 6.7-4.7 10-.3.5.4.8.7.4 2.8-4 4.6-8.6 5.8-13.3.1-.5-.5-.8-.8-.3-2.6 3.8-5.4 6.8-8.9 9.8-.4.1 0 .6.4.4zm-17.4 6c2.8-2.1 5.4-4.6 7.6-7.3-.6 1.8-1.4 3.5-2.2 5.2-.2.4.2.9.6.6 3.2-2.2 6.2-5 8.2-8.4-.3 1.1-.7 2.2-1 3.3-.1.3.3.4.4.1.6-1.9 1.1-3.9 1.8-5.7.2-.4-.4-.6-.7-.3-2.3 3.5-4.7 6.6-8 9.2.8-1.9 1.4-3.8 2-5.8.1-.3-.3-.6-.6-.3-2.6 3.3-5.4 6.3-8.6 9 0 .2.2.6.5.4zm-6.1-1.2c-.1.5.6.6.7.2.9-2.6 1.2-5.3 1.2-8 0-.5-.7-.7-.9-.2-1.4 2.7-3.1 5.2-5.2 7.4-.1-1.5-.1-3-.2-4.5 0-.4-.7-.7-.8-.2-1.4 3-3.2 5.6-5.2 8.3-.2.3.2.5.4.3 2-1.9 3.5-4.2 4.7-6.6 0 1.3.1 2.6.1 3.9 0 .4.5.7.8.3 2.1-2 3.8-4.3 5.2-6.8 0 1.9-.3 3.9-.8 5.9zM57 49c-.2-3.3-.8-6.7-1.4-10 2.2 2.5 3.8 5.5 4.9 8.6.1.3.7.2.6-.2-1.3-3.8-3.4-7-5.9-10.1-.2-.3-.8-.1-.8.3.5 3.8 1 7.7 1.9 11.5.2.4.7.3.7-.1zm-9.5 11.5c2.6-1.2 5.5-2.2 7.9-3.8.4-.3.2-.9-.3-.8-2.2.7-4.4 1.8-6.5 2.8 1.7-2.8 3.9-5.2 6.5-7.3.4-.3-.1-.9-.5-.7-3.3 2.3-5.9 5.4-7.7 9-.4.6.1 1.1.6.8zm-2.9 32.4-3.6 3c4.3-5.6 7.3-12.1 8.5-19.1.7-.8 1.3-1.6 2.1-2.3.5-.5-.3-1.3-.8-.8s-.9.9-1.3 1.4c-.2-.1-.5 0-.5.2s-.1.3-.1.5c-.7.9-1.4 1.8-2 2.7 1.7-7.4 4.8-14.2 9.1-20.5.3-.4-.4-.8-.7-.4-5.4 7-8.6 15.2-10.1 23.9-.1.6.7 1 1 .4.6-1.2 1.3-2.4 2.1-3.5-2 7.6-5.6 14.4-11 20.2-.4.5.1 1.3.7.9 2.7-1.7 5.2-3.6 7.3-6 .3-.4-.3-1-.7-.6zm17.3-8.8c-1.4 4.1-1.5 8.5-.9 12.8-2.8-3.5-4.3-7.4-5.2-11.8 0 0 0-.1-.1-.1.3-.4.6-.8.9-1.3.2-.3-.2-.6-.4-.3-4 4.2-7 9.4-9.4 14.6 0-4.5 1.1-8.8 2.9-13 .2-.4-.3-.7-.5-.3-2.6 4.8-3.6 10-3.2 15.4 0 .4.7.7.9.2 2.3-5.2 5.3-9.9 8.5-14.7.5 4.9 2.9 9.4 6.2 13 .3.3.8 0 .8-.4-1-4.8-.6-9.3.3-14.1-.2-.2-.7-.3-.8 0zm10.9-26.6c-2.6 3-3.5 7.4-3.5 11.2 0 1 .1 1.9.2 2.9 0 .1.1.4.2.8l-1-1.5c-.8-1.6-1.2-3.3-1.6-5-.1-.3-.7-.3-.6.1.4 3.3 1.9 6.2 3.8 8.9.2.3.7.1.6-.3-1.6-6.3-.2-11.1 2-16.9.3-.2 0-.4-.1-.2zm-11 18.9c1.2-5.5 3-10.6 5.8-15.5.2-.3-.3-.6-.4-.3-2.9 4.9-4.9 10.1-5.7 15.7 0 .2.2.3.3.1zM76.2 40c-2.2 3.5-4.4 7-6.8 10.4-.1.2.1.4.3.2 2.5-2.7 4.8-5.8 6.6-9.1.2 3.1-.8 6.1-2.7 8.6-.3.3.2.8.5.5 2.6-3 3.6-6.7 2.9-10.6-.1-.3-.6-.3-.8 0zM61.7 60.1c.3-.3-.2-.8-.5-.5-2.2 2.1-4 4.6-5.2 7.4-.4 1-2.2 4.3-.6 5.1.2.1.4.1.6-.1 1-.7 1.6-1.9 2.3-2.9 1-1.3 2-2.6 2.9-4 .2-.4-.3-.8-.6-.5-1 1.1-1.9 2.4-2.8 3.6-.1.1-1.5 2.2-1.6 2.2-.5-.2.1-1.4.2-1.7 1-3.3 2.9-6.2 5.3-8.6zm31.5-14.8c-3.1 1.9-5.9 3.8-9.4 5-.4.1-.2.8.2.7 3.4-1 7-2.6 9.6-5.1.3-.3 0-.8-.4-.6zm21.1-12.5c6.7-1 14.3-3.4 20-7.5-1.1 2.6-2.7 4.9-4.6 7-.2.2.1.6.3.4 2.6-2 4.5-4.7 5.3-7.9v-.2c.3-.2.6-.4.8-.7.2-.2-.1-.6-.3-.4-7.2 3.6-13.7 6.9-21.6 8.8-.4 0-.3.5.1.5zm12.5 4.9c8.4 1.2 14.5 5.1 19.4 11.5-3.7-3.2-8.7-4.8-13.5-4.6-.5 0-.4.7 0 .7 5.2.5 9.4 2.1 13.9 4.9.1.1.3 0 .4-.1.2.3.4.6.7.9.3.4.9.1.7-.4-3.5-8.1-12.8-13.5-21.4-13.6-.5 0-.6.6-.2.7zm-12.6 29.1c.1-5.2-2.4-10.5-7.2-12.9-.2-.1-.5.2-.3.4 3.8 3 6.3 6.8 6.8 11.6-4.5-6.6-12.4-10.6-20.3-10.9 12.1-4.1 22.9-12.2 30.6-22.1.3-.3 0-1-.5-.8-4.9 1.7-9.8 3.6-14.7 5.6-.3.1-.1.6.2.5 3.1-1 6.2-2 9.2-3.1.8-.3 3.2-1.6 3.9-1.5.2 0-1.4 1.8-1.8 2.2-3.6 4-7.6 7.5-12.1 10.5-8.9 6-18.7 9.2-29.2 11.1-.3 0-.2.5.1.5 4.5-.3 8.9-1.2 13.2-2.5 0 .1.1.2.2.2 8.9.8 15.8 5.1 21.3 12 .3.3.8-.1.6-.4.1-.3.1-.3 0-.4zm19.9-10c.4-.1.3-.8-.1-.7-8.6.7-16.2-.2-24.6-1.8-.2 0-.4.3-.2.4 3.2 1.4 6.8 2.3 10.4 2.7 5.7 4.4 13.5 7.2 20.7 6.4.4 0 .4-.5 0-.6-7.2-.8-13.1-2.2-19.2-5.7 4.4.4 8.8.1 13-.7zm5.1-9.6c-.1-.2-.5 0-.4.2 3.1 6 8.5 11.2 15.1 13.2-4.7.2-8.6-.9-12.4-4.2-.2-.2-.6.1-.4.3 3.2 4.2 9.6 6.4 14.6 4.4l.1-.1c.4.1.6-.5.2-.7-7-2.8-12.8-6.6-16.8-13.1zm17.1 53c-2.1-2.4-4.2-4.6-5.7-7.4-1.4-2.6-1.9-5.2-2.8-7.9 1.5 1.2 3.2 2.2 5.1 2.9l.3.3c.1.2.4.1.5-.1.1 0 .1.1.2.1.3.1.5-.4.2-.6-.3-.2-.6-.3-.9-.5-3.2-4.7-4.6-9.3-5.2-15 2.1 1.4 4.1 2.9 5.8 4.9 0 .1.1.2.1.3.1.2.4.2.5 0 .1-.1.2-.3.1-.4-.1-.1-.1-.2-.2-.3-1.7-7.8-7.4-14.6-13.6-19.2-.2-.1-.4.2-.2.3 5.6 4.8 9 10.4 12.1 16.8-1.9-2-4.2-3.6-6.8-4.3-.3-.1-.4.3-.2.5.6.3 1.2.7 1.8 1.1 0 .1-.1.1-.1.2-.4 5 1.3 10.2 4.3 14.3-4.3-2.7-7.8-6.1-10.2-10.7-.2-.4-.7-.1-.6.3 1.4 3.3 3.6 6.3 6.4 8.6-.3 4.1 1.8 8.9 4.7 12.6-4.2-2.8-7.6-6.2-9.8-10.7 0-.1 0-.2-.1-.2-.6-1.3-1.2-2.8-1.6-4.3-.1-.3-.6-.2-.5.1.3 1.5.8 3.1 1.4 4.6-1.2 1.7-2.3 4.3-2.3 6.6-2.6-7.9-3.1-15.1-2-23.4 0-.3-.2-.4-.4-.3.1-.5.2-1 .2-1.5.1-.4-.6-.4-.7-.1-1 2.8-1.9 5.5-3 8.2.2-4-.6-8-2-11.8-.1-.3-.6-.2-.5.2 1.5 4.6 1.7 9.3 1.6 14.1-.1.2-.2.4-.3.7-.2.4.4.6.7.3 1.1-1.7 2.1-3.7 2.8-5.7-1.1 7 .1 14.5 3.2 20.7.1.2.4.2.6.1v.1c.1.3.5.3.6 0 .5-1.3.4-2.8.8-4.2.3-1 .7-2 1.1-3 2.3 5.1 6.4 9.5 11.7 11.3.8.8 1.6 1.6 2.5 2.2.3 0 .6-.5.4-.8zm-96.8-70c1.7 5.5 1.7 10.5 1.2 16.1 0 .5.7.5.8.1 1.3-5.3.6-11-1.2-16.1 3.4 3 5.3 6.2 6.1 10.9 0 .2.4.2.4-.1.1-4.6-2.7-9.7-6.9-11.7-.2-.1-.5.2-.3.4-.1 0-.1.2-.1.4z" fill="#5c3d2e" stroke-width="none" opacity="1"></path></g><g id="svga-group-glasses-single-move" transform="matrix(1,0,0,1,0,0)"><g id="svga-group-glasses-single"><path id="SvgjsPath38663" d="M95.79 91.36s.32-2.16-3.48-3.45c-2.88-.98-5.89-1.11-8.31-1.11s-10.25-.09-12.23.09c-1.98.19-4.96.38-5.95 3.32-.99 2.94.33 7.88 4.3 10.35 3.97 2.47 12.23 2.66 17.52 1.04 5.28-1.6 7.71-5.27 8.15-10.24z" fill="#ffffff" stroke-width="none" opacity="0.44"></path><path id="SvgjsPath38664" d="M104.21 91.36s-.32-2.16 3.48-3.45c2.88-.98 5.89-1.11 8.31-1.11s10.25-.09 12.23.09c1.98.19 4.96.38 5.95 3.32.99 2.94-.33 7.88-4.3 10.35-3.97 2.47-12.23 2.66-17.52 1.04-5.28-1.6-7.71-5.27-8.15-10.24z" fill="#ffffff" stroke-width="none" opacity="0.44"></path><path id="SvgjsPath38665" d="M95.78 90.77s3.57-1.69 8.41 0v.98s-5.18-.98-8.5 0l.09-.98z" fill="#006089" stroke-width="none" opacity="1"></path><path id="SvgjsPath38666" d="M79.82 103.04c-4.1 0-7.71-.78-9.9-2.15-3.57-2.22-4.97-6.32-4.76-9.18l.01-.13h-2.4v-2.06h2.93l.03-.07c1.22-2.47 3.98-2.73 5.81-2.91l.19-.02c.85-.08 2.8-.12 5.97-.12 1.45 0 2.93.01 4.18.01.9.01 1.62.01 2.12.01 2.38 0 5.48.13 8.43 1.13 3.9 1.32 3.76 3.59 3.73 3.84-.49 5.46-3.32 9.02-8.42 10.58-2.24.69-5.06 1.07-7.92 1.07zm-2.07-15.89c-3.18 0-5.13.04-5.95.12l-.19.02c-2.03.19-4.56.43-5.44 3.05-.99 2.93.44 7.61 4.14 9.91 2.07 1.29 5.53 2.02 9.51 2.02 2.77 0 5.58-.37 7.7-1.02 4.85-1.48 7.43-4.73 7.89-9.93.02-.21.1-1.93-3.23-3.06-2.85-.97-5.87-1.09-8.19-1.09-.5 0-2.22-.01-2.22-.01-1.16 0-2.6-.01-4.02-.01z" fill="#107aa8" stroke-width="none" opacity="1"></path><path id="SvgjsPath38667" d="M77.7 86.53c1.45 0 2.92.01 4.17.01h.05c.85 0 1.57.01 2.07.01 2.37 0 5.46.13 8.39 1.12 3.8 1.29 3.68 3.47 3.65 3.71-.48 5.41-3.29 8.93-8.33 10.47-2.24.68-5.04 1.06-7.89 1.06-4.08 0-7.66-.78-9.84-2.13-3.53-2.2-4.91-6.24-4.7-9.06l.02-.27h-2.41v-1.81h2.89l.07-.14c1.19-2.41 3.91-2.67 5.71-2.84l.19-.02c.85-.08 2.79-.11 5.96-.11m2.12 15.87c2.82 0 5.57-.36 7.74-1.03 4.9-1.5 7.51-4.78 7.98-10.06.02-.2.1-2.01-3.31-3.17-2.86-.97-5.9-1.1-8.23-1.1-.5 0-1.22 0-2.07-.01h-.15c-1.17-.01-2.6-.01-4.03-.01-3.19 0-5.14.04-5.96.12l-.19.02c-1.96.18-4.64.44-5.55 3.14-1 2.97.44 7.73 4.19 10.06 2.09 1.3 5.58 2.04 9.58 2.04M77.7 86.28c-2.53 0-4.97.02-5.98.12l-.19.02c-1.89.18-4.66.44-5.91 2.98h-2.98v2.31h2.39c-.23 3.15 1.4 7.16 4.82 9.29 2.41 1.5 6.19 2.17 9.97 2.17 2.85 0 5.71-.38 7.96-1.07 5.15-1.57 8.01-5.17 8.51-10.68.03-.27.17-2.62-3.82-3.97-2.97-1.02-6.09-1.15-8.47-1.15-.5 0-1.22 0-2.07-.01-1.26-.01-2.76-.01-4.23-.01zm2.12 15.87c-3.6 0-7.21-.62-9.45-2.01-3.65-2.27-5.06-6.88-4.09-9.77.86-2.55 3.34-2.78 5.34-2.97l.19-.02c.97-.09 3.44-.12 5.94-.12 1.48 0 2.98.01 4.17.01.85 0 1.58.01 2.08.01 2.31 0 5.32.12 8.15 1.08 3.27 1.11 3.16 2.81 3.15 2.91v.02c-.46 5.15-3.01 8.36-7.8 9.82-2.15.68-4.91 1.04-7.68 1.04z" fill="#006089" stroke-width="none" opacity="1"></path><path id="SvgjsPath38668" d="M120.18 103.04c-2.86 0-5.68-.38-7.93-1.06-5.1-1.56-7.93-5.11-8.42-10.58-.03-.26-.17-2.52 3.73-3.84 2.95-1 6.06-1.13 8.43-1.13.5 0 1.22 0 2.07-.01 1.3-.01 2.78-.02 4.23-.02 3.17 0 5.12.04 5.97.12l.18.02c1.83.17 4.59.43 5.81 2.91l.04.07h2.93v2.06h-2.39l.01.13c.21 2.86-1.19 6.96-4.76 9.18-2.19 1.36-5.8 2.15-9.9 2.15zm2.07-15.89c-1.42 0-2.86.01-4.03.01 0 0-1.73.01-2.22.01-2.32 0-5.35.12-8.19 1.09-3.32 1.13-3.25 2.85-3.23 3.04.47 5.23 3.05 8.47 7.89 9.95 2.12.65 4.93 1.02 7.7 1.02 3.98 0 7.44-.74 9.51-2.02 3.7-2.3 5.13-6.98 4.14-9.91-.88-2.62-3.41-2.86-5.45-3.05l-.19-.02c-.8-.08-2.75-.12-5.93-.12z" fill="#107aa8" stroke-width="none" opacity="1"></path><path id="SvgjsPath38669" d="M122.3 86.28v.25c3.17 0 5.11.04 5.96.12l.19.02c1.8.17 4.52.43 5.71 2.84l.07.14h2.89v1.81h-2.41l.02.27c.21 2.83-1.17 6.87-4.7 9.06-2.18 1.35-5.76 2.13-9.84 2.13-2.85 0-5.65-.38-7.89-1.06-5.04-1.54-7.85-5.06-8.33-10.47-.03-.24-.16-2.42 3.65-3.71 2.93-.99 6.02-1.12 8.39-1.12.5 0 1.22 0 2.07-.01h.06c1.25-.01 2.72-.01 4.17-.01v-.26m-2.13 16.12c4 0 7.49-.74 9.58-2.04 3.75-2.33 5.2-7.08 4.19-10.06-.91-2.7-3.59-2.95-5.55-3.14l-.19-.02c-.82-.08-2.77-.12-5.96-.12-1.42 0-2.86.01-4.03.01h-.15c-.85 0-1.58.01-2.07.01-2.33 0-5.37.12-8.23 1.1-3.41 1.16-3.33 2.97-3.31 3.19.47 5.26 3.08 8.54 7.98 10.04 2.17.67 4.91 1.03 7.74 1.03m2.12-16.12c-1.47 0-2.97.01-4.23.02-.85 0-1.57.01-2.07.01-2.39 0-5.51.13-8.47 1.14-3.99 1.35-3.85 3.71-3.82 3.97.49 5.52 3.36 9.11 8.51 10.68 2.26.69 5.11 1.07 7.96 1.07 3.78 0 7.56-.67 9.97-2.17 3.42-2.13 5.05-6.14 4.82-9.29h2.39V89.4h-2.98c-1.25-2.53-4.02-2.8-5.91-2.98l-.19-.02c-1.01-.1-3.45-.12-5.98-.12zm-2.12 15.87c-2.77 0-5.53-.36-7.67-1.01-4.79-1.46-7.34-4.68-7.8-9.82v-.02c-.01-.1-.13-1.8 3.15-2.91 2.83-.96 5.84-1.08 8.15-1.08.5 0 1.22 0 2.08-.01 1.19-.01 2.69-.01 4.17-.01 2.5 0 4.96.02 5.94.12l.19.02c2 .19 4.48.42 5.34 2.97.97 2.88-.44 7.5-4.09 9.77-2.25 1.37-5.86 1.98-9.46 1.98z" fill="#006089" stroke-width="none" opacity="1"></path></g></g></g></g></g><rect id="svga-credit-rect" width="200" height="15" x="0" y="185" fill="#ecf0f1" opacity="0.5" style="display: none;"></rect><text id="svga-credit-text" font-family="Avenir Next, Roboto, Helvetica, Arial, sans-serif" font-size="10px" text-anchor="start" font-weight="400" size="10px" anchor="start" weight="400" fill="#333333" x="33.40447998046875" y="182.60824704170227" style="display: none;"><tspan id="SvgjsTspan38421" dy="13" x="33.40447998046875">Created on AvatarMaker.com</tspan></text></g><defs id="SvgjsDefs38368"></defs></svg>